# Wavefront OBJ exported by MilkShape 3D

mtllib barrel.mtl

v -0.322443 -18.265554 10.728068
v 3.965281 -18.265554 9.875136
v 7.600492 -18.265554 7.446537
v 10.029091 -18.265554 3.811326
v 10.882023 -18.265554 -0.476911
v 10.029091 -18.265554 -4.764635
v 7.600492 -18.265554 -8.399846
v 3.965281 -18.265554 -10.828446
v -0.322956 -18.265554 -11.681377
v -4.610679 -18.265554 -10.828446
v -8.245890 -18.265554 -8.399846
v -10.674489 -18.265554 -4.764635
v -11.527421 -18.265554 -0.476398
v -10.674489 -18.265554 3.811326
v -8.245890 -18.265554 7.446537
v -4.610679 -18.265554 9.875136
v -0.322443 -11.607106 14.973248
v 5.589644 -11.607106 13.797392
v 10.602154 -11.607106 10.448200
v 13.951345 -11.607106 5.435689
v 15.127202 -11.607106 -0.476911
v 13.951345 -11.607106 -6.388999
v 10.602154 -11.607106 -11.401509
v 5.589644 -11.607106 -14.750702
v -0.322956 -11.607106 -15.926558
v -6.235042 -11.607106 -14.750702
v -11.247553 -11.607106 -11.401509
v -14.596745 -11.607106 -6.388999
v -15.772601 -11.607106 -0.476398
v -14.596745 -11.607106 5.435689
v -11.247553 -11.607106 10.448200
v -6.235042 -11.607106 13.797392
v -0.322443 -0.061881 16.319281
v 6.104786 -0.061881 15.040909
v 11.554013 -0.061881 11.400060
v 15.194862 -0.061881 5.950831
v 16.473234 -0.061881 -0.476911
v 15.194862 -0.061881 -6.904140
v 11.554013 -0.061881 -12.353369
v 6.104786 -0.061881 -15.994218
v -0.322956 -0.061881 -17.272591
v -6.750184 -0.061881 -15.994218
v -12.199412 -0.061881 -12.353369
v -15.840261 -0.061881 -6.904140
v -17.118633 -0.061881 -0.476398
v -15.840261 -0.061881 5.950831
v -12.199412 -0.061881 11.400060
v -6.750184 -0.061881 15.040909
v -0.322443 11.483344 14.973248
v 5.589644 11.483344 13.797392
v 10.602154 11.483344 10.448200
v 13.951345 11.483344 5.435689
v 15.127202 11.483344 -0.476911
v 13.951345 11.483344 -6.388999
v 10.602154 11.483344 -11.401509
v 5.589644 11.483344 -14.750702
v -0.322956 11.483344 -15.926558
v -6.235042 11.483344 -14.750702
v -11.247553 11.483344 -11.401509
v -14.596745 11.483344 -6.388999
v -15.772601 11.483344 -0.476398
v -14.596745 11.483344 5.435689
v -11.247553 11.483344 10.448200
v -6.235042 11.483344 13.797392
v -0.423934 18.529249 10.750109
v 3.863277 18.529249 9.897178
v 7.497463 18.529249 7.469090
v 9.925550 18.529249 3.834904
v 10.778481 18.529249 -0.452307
v 9.925550 18.529249 -4.739007
v 7.497463 18.529249 -8.373192
v 3.863277 18.529249 -10.801279
v -0.423934 18.529249 -11.654211
v -4.710632 18.529249 -10.801279
v -8.344818 18.529249 -8.373192
v -10.772904 18.529249 -4.739007
v -11.625836 18.529249 -0.452307
v -10.772904 18.529249 3.834904
v -8.344818 18.529249 7.469090
v -4.710632 18.529249 9.897178
v -5.181180 20.164354 11.217582
v -0.347047 20.164354 12.179180
v 4.486574 20.164354 11.217582
v 8.584130 20.164354 8.479383
v 11.322328 20.164354 4.381826
v 12.283926 20.164354 -0.452307
v 11.322328 20.164354 -5.285928
v 8.584130 20.164354 -9.383486
v 4.486574 20.164354 -12.121683
v -0.347047 20.164354 -13.083282
v -5.181180 20.164354 -12.121683
v -9.278737 20.164354 -9.383486
v -12.016934 20.164354 -5.285928
v -12.978532 20.164354 -0.452307
v -12.016934 20.164354 4.381826
v -9.278737 20.164354 8.479383
v -4.710632 20.209465 9.897178
v -0.423934 20.209465 10.750109
v 3.863277 20.209465 9.897178
v 7.497463 20.209465 7.469090
v 9.925550 20.209465 3.834904
v 10.778481 20.209465 -0.452307
v 9.925550 20.209465 -4.739007
v 7.497463 20.209465 -8.373192
v 3.863277 20.209465 -10.801279
v -0.423934 20.209465 -11.654211
v -4.710632 20.209465 -10.801279
v -8.344818 20.209465 -8.373192
v -10.772904 20.209465 -4.739007
v -11.625836 20.209465 -0.452307
v -10.772904 20.209465 3.834904
v -8.344818 20.209465 7.469090
v -0.322443 -20.288116 12.086403
v -5.130435 -20.288116 11.129930
v -9.205951 -20.288116 8.406597
v -11.929283 -20.288116 4.331081
v -12.885756 -20.288116 -0.476398
v -11.929283 -20.288116 -5.284390
v -9.205951 -20.288116 -9.359907
v -5.130435 -20.288116 -12.083240
v -0.322956 -20.288116 -13.039712
v 4.485036 -20.288116 -12.083240
v 8.560552 -20.288116 -9.359907
v 11.283884 -20.288116 -5.284390
v 12.240356 -20.288116 -0.476911
v 11.283884 -20.288116 4.331081
v 8.560552 -20.288116 8.406597
v 4.485036 -20.288116 11.129930
v -0.282462 -20.257837 10.728068
v -4.570186 -20.257837 9.875136
v -8.205397 -20.257837 7.446537
v -10.633996 -20.257837 3.811326
v -11.486927 -20.257837 -0.476398
v -10.633996 -20.257837 -4.764635
v -8.205397 -20.257837 -8.399846
v -4.570186 -20.257837 -10.828446
v -0.282462 -20.257837 -11.681377
v 4.005774 -20.257837 -10.828446
v 7.640985 -20.257837 -8.399846
v 10.069585 -20.257837 -4.764635
v 10.922516 -20.257837 -0.476911
v 10.069585 -20.257837 3.811326
v 7.640985 -20.257837 7.446537
v 4.005774 -20.257837 9.875136
# 144 vertices

vt 0.960938 0.007813
vt 0.730469 0.988281
vt 0.960938 0.988281
vt 0.730469 0.007813
vt 0.496094 0.988281
vt 0.496094 0.009766
vt 0.261719 0.990234
vt 0.261719 0.009766
vt 0.031250 0.988281
vt 0.031250 0.007813
vt 0.726563 0.988281
vt 0.726563 0.007813
vt 0.496094 0.007813
vt 0.261719 0.988281
vt 0.261719 0.007813
vt 0.027344 0.988281
vt 0.027344 0.007813
vt 0.964844 0.007813
vt 0.964844 0.988281
vt 0.265625 0.988281
vt 0.265625 0.007813
vt 0.031250 0.498047
vt 0.261719 0.742188
vt 0.261719 0.498047
vt 0.031250 0.742188
vt 0.496094 0.742188
vt 0.496094 0.498047
vt 0.730469 0.742188
vt 0.730469 0.498047
vt 0.960938 0.742188
vt 0.960938 0.498047
vt 0.265625 0.742188
vt 0.265625 0.498047
vt 0.964844 0.742188
vt 0.964844 0.498047
vt 0.027344 0.498047
vt 0.027344 0.742188
vt 0.726563 0.742188
vt 0.726563 0.498047
vt 0.031250 0.253906
vt 0.261719 0.253906
vt 0.496094 0.253906
vt 0.730469 0.253906
vt 0.960938 0.253906
vt 0.265625 0.253906
vt 0.964844 0.253906
vt 0.027344 0.253906
vt 0.726563 0.253906
vt 0.019531 0.078125
vt 0.230469 0.052734
vt 0.019531 0.052734
vt 0.230469 0.078125
vt 0.210938 0.076172
vt 0.468750 0.048828
vt 0.210938 0.048828
vt 0.468750 0.076172
vt 0.476563 0.076172
vt 0.718750 0.052734
vt 0.476563 0.052734
vt 0.718750 0.076172
vt 0.222656 0.076172
vt 0.222656 0.052734
vt 0.015625 0.076172
vt 0.015625 0.052734
vt 0.695313 0.078125
vt 0.960938 0.052734
vt 0.695313 0.052734
vt 0.960938 0.078125
vt 0.480469 0.078125
vt 0.480469 0.052734
vt 0.226563 0.078125
vt 0.226563 0.052734
vt 0.027344 0.078125
vt 0.027344 0.052734
vt 0.707031 0.076172
vt 0.894531 0.050781
vt 0.707031 0.050781
vt 0.894531 0.076172
vt 0.484375 0.076172
vt 0.484375 0.050781
vt 0.199219 0.076172
vt 0.199219 0.050781
vt 0.027344 0.076172
vt 0.027344 0.050781
vt 0.710938 0.078125
vt 0.957031 0.052734
vt 0.710938 0.052734
vt 0.957031 0.078125
vt 0.484375 0.078125
vt 0.484375 0.052734
vt 0.941406 0.484375
vt 0.808594 0.646484
vt 0.906250 0.572266
vt 0.660156 0.695313
vt 0.484375 0.712891
vt 0.312500 0.695313
vt 0.164063 0.646484
vt 0.066406 0.572266
vt 0.031250 0.484375
vt 0.066406 0.398438
vt 0.164063 0.324219
vt 0.312500 0.275391
vt 0.484375 0.257813
vt 0.660156 0.275391
vt 0.808594 0.324219
vt 0.906250 0.398438
vt 0.070313 0.574219
vt 0.070313 0.398438
vt 0.035156 0.486328
vt 0.167969 0.324219
vt 0.316406 0.275391
vt 0.492188 0.257813
vt 0.667969 0.275391
vt 0.816406 0.324219
vt 0.917969 0.398438
vt 0.953125 0.486328
vt 0.917969 0.574219
vt 0.816406 0.648438
vt 0.667969 0.699219
vt 0.492188 0.716797
vt 0.316406 0.699219
vt 0.167969 0.648438
vt 0.230469 0.099609
vt 0.464844 0.029297
vt 0.222656 0.041016
vt 0.464844 0.083984
vt 0.023438 0.076172
vt 0.269531 0.048828
vt 0.031250 0.048828
vt 0.265625 0.078125
vt 0.496094 0.046875
vt 0.500000 0.080078
vt 0.730469 0.046875
vt 0.730469 0.078125
vt 0.960938 0.048828
vt 0.964844 0.074219
vt 0.023438 0.074219
vt 0.261719 0.046875
vt 0.035156 0.048828
vt 0.269531 0.078125
vt 0.503906 0.046875
vt 0.503906 0.074219
vt 0.722656 0.048828
vt 0.726563 0.076172
vt 0.964844 0.048828
vt 0.031250 0.080078
vt 0.269531 0.046875
vt 0.031250 0.046875
vt 0.269531 0.080078
vt 0.503906 0.080078
vt 0.726563 0.046875
vt 0.726563 0.080078
vt 0.964844 0.046875
vt 0.964844 0.080078
vt 0.027344 0.097656
vt 0.269531 0.060547
vt 0.035156 0.064453
vt 0.269531 0.095703
vt 0.503906 0.056641
vt 0.503906 0.089844
vt 0.039063 0.093750
vt 0.027344 0.041016
# 162 texture coordinates

vn -0.062632 -0.322298 -0.944564
vn -0.228685 -0.707374 -0.668824
vn 0.044842 -0.704738 -0.708049
vn -0.365028 -0.566398 -0.738883
vn -0.465697 -0.709692 -0.528644
vn -0.618197 -0.569937 -0.541298
vn -0.631111 -0.711309 -0.309415
vn -0.776833 -0.572145 -0.263021
vn -0.700770 -0.712008 -0.044329
vn -0.817954 -0.572721 0.054243
vn -0.664720 -0.711675 0.227302
vn -0.735671 -0.571569 0.363450
vn -0.528142 -0.710372 0.465228
vn -0.541776 -0.568870 0.618761
vn -0.310811 -0.708273 0.633834
vn -0.264597 -0.564999 0.781514
vn -0.044811 -0.705706 0.707086
vn 0.054797 -0.560553 0.826304
vn 0.230003 -0.703047 0.672922
vn 0.368094 -0.556192 0.745089
vn 0.471511 -0.700718 0.535417
vn 0.627043 -0.552603 0.549043
vn 0.641994 -0.699061 0.314894
vn 0.790852 -0.550322 0.267767
vn 0.714321 -0.698350 0.045309
vn 0.833511 -0.549732 -0.055275
vn 0.676976 -0.698686 -0.231390
vn 0.748232 -0.550912 -0.369656
vn 0.535899 -0.700030 -0.471985
vn 0.626355 -0.309744 -0.715359
vn 0.313504 -0.702151 -0.639295
vn 0.066183 -0.978473 -0.195474
vn 0.000008 -0.000000 1.000000
vn 0.313114 -0.216456 0.924720
vn 0.382667 -0.000001 0.923886
vn -0.064583 -0.216451 0.974155
vn 0.643156 -0.216468 0.734501
vn 0.707107 0.000000 0.707107
vn 0.875288 -0.216464 0.432452
vn 0.923889 0.000001 0.382660
vn 0.974155 -0.216451 0.064583
vn 1.000000 -0.000000 -0.000008
vn 0.924720 -0.216456 -0.313114
vn 0.923886 -0.000001 -0.382667
vn 0.734501 -0.216468 -0.643156
vn 0.707107 0.000000 -0.707107
vn 0.432452 -0.216464 -0.875288
vn 0.382660 0.000001 -0.923889
vn 0.064583 -0.216451 -0.974155
vn -0.000008 -0.000000 -1.000000
vn -0.313114 -0.216456 -0.924720
vn -0.382667 -0.000001 -0.923886
vn -0.643156 -0.216468 -0.734501
vn -0.707107 -0.000000 -0.707107
vn -0.875288 -0.216464 -0.432452
vn -0.923889 0.000001 -0.382660
vn -0.974155 -0.216451 -0.064583
vn -1.000000 -0.000000 0.000008
vn -0.924720 -0.216456 0.313114
vn -0.923886 -0.000001 0.382667
vn -0.734501 -0.216468 0.643156
vn -0.707107 0.000000 0.707107
vn -0.432452 -0.216464 0.875288
vn -0.382660 0.000001 0.923889
vn 0.064651 0.211819 0.975168
vn 0.432837 0.212431 0.876085
vn 0.735039 0.213124 0.643658
vn 0.925277 0.213779 0.313307
vn 0.974623 0.214323 -0.064615
vn 0.875640 0.214680 -0.432628
vn 0.643405 0.214775 -0.734780
vn 0.313230 0.214581 -0.925117
vn -0.064641 0.214157 -0.974658
vn -0.432758 0.213569 -0.875847
vn -0.735103 0.212889 -0.643663
vn -0.925612 0.212204 -0.313386
vn -0.975203 0.211652 0.064677
vn -0.876291 0.211317 0.432966
vn -0.643914 0.211233 0.735361
vn -0.313463 0.211400 0.925771
vn -0.303742 0.321153 -0.896996
vn -0.048692 0.724281 -0.687783
vn -0.308223 0.724051 -0.617048
vn 0.013641 0.978530 -0.205654
vn -0.545197 0.561315 -0.622644
vn -0.521010 0.723869 -0.452285
vn -0.741985 0.561310 -0.366592
vn -0.654545 0.723735 -0.218582
vn -0.825788 0.561316 -0.054757
vn -0.688420 0.723686 0.048540
vn -0.783879 0.561309 0.265452
vn -0.617436 0.723708 0.308254
vn -0.622644 0.561315 0.545197
vn -0.452372 0.723820 0.521003
vn -0.366592 0.561310 0.741985
vn -0.218481 0.723986 0.654301
vn -0.054757 0.561316 0.825788
vn 0.048606 0.724207 0.687868
vn 0.265452 0.561309 0.783879
vn 0.308075 0.724431 0.616676
vn 0.545197 0.561315 0.622644
vn 0.520498 0.724647 0.451629
vn 0.741982 0.561309 0.366598
vn 0.653574 0.724791 0.217987
vn 0.825787 0.561316 0.054776
vn 0.687166 0.724862 -0.048771
vn 0.783883 0.561310 -0.265440
vn 0.616234 0.724823 -0.308039
vn 0.622644 0.561315 -0.545196
vn 0.451528 0.724704 -0.520507
vn 0.419497 0.321152 -0.849048
vn 0.218104 0.724504 -0.653854
vn -0.037002 0.801960 0.596230
vn -0.262554 0.801560 0.537184
vn 0.193709 0.802477 0.564364
vn 0.394413 0.803028 0.446748
vn 0.534736 0.803532 0.261524
vn 0.593609 0.803906 0.036917
vn 0.562276 0.804113 -0.192997
vn 0.445594 0.804112 -0.393508
vn 0.261171 0.803899 -0.534356
vn 0.036755 0.803494 -0.594178
vn -0.193707 0.802973 -0.563660
vn -0.395190 0.802407 -0.447177
vn -0.536861 0.801889 -0.262209
vn -0.596868 0.801494 -0.036832
vn -0.565786 0.801300 0.194435
vn -0.448330 0.801324 0.396082
vn -0.181633 -0.820484 0.542047
vn 0.039639 -0.820553 0.570195
vn -0.375297 -0.820431 0.431329
vn -0.511838 -0.820394 0.254903
vn -0.570445 -0.820379 0.039620
vn -0.542159 -0.820400 -0.181677
vn -0.431328 -0.820448 -0.375262
vn -0.254876 -0.820509 -0.511667
vn -0.039673 -0.820577 -0.570157
vn 0.181483 -0.820653 -0.541842
vn 0.374946 -0.820718 -0.431087
vn 0.511320 -0.820756 -0.254777
vn 0.569891 -0.820761 -0.039694
vn 0.541721 -0.820744 0.181435
vn 0.431089 -0.820701 0.374984
vn 0.254806 -0.820632 0.511505
# 144 normals

g 
usemtl mat_barrel_1
s 1
f 1/1/1 144/2/2 129/3/3
f 1/1/1 2/4/4 144/2/2
f 2/4/4 143/5/5 144/2/2
f 2/4/4 3/6/6 143/5/5
f 3/6/6 142/7/7 143/5/5
f 3/6/6 4/8/8 142/7/7
f 4/8/8 141/9/9 142/7/7
f 4/8/8 5/10/10 141/9/9
f 5/1/10 140/11/11 141/3/9
f 5/1/10 6/12/12 140/11/11
f 6/12/12 139/5/13 140/11/11
f 6/12/12 7/13/14 139/5/13
f 7/13/14 138/14/15 139/5/13
f 7/13/14 8/15/16 138/14/15
f 8/15/16 137/16/17 138/14/15
f 8/15/16 9/17/18 137/16/17
f 9/18/18 136/2/19 137/19/17
f 9/18/18 10/4/20 136/2/19
f 10/4/20 135/5/21 136/2/19
f 10/4/20 11/13/22 135/5/21
f 11/13/22 134/20/23 135/5/21
f 11/13/22 12/21/24 134/20/23
f 12/21/24 133/9/25 134/20/23
f 12/21/24 13/10/26 133/9/25
f 13/1/26 132/2/27 133/3/25
f 13/1/26 14/4/28 132/2/27
f 14/4/28 131/5/29 132/2/27
f 14/4/28 15/13/30 131/5/29
f 15/13/30 130/14/31 131/5/29
f 15/13/30 16/15/32 130/14/31
f 16/15/32 129/9/3 130/14/31
f 16/15/32 1/10/1 129/9/3
f 33/22/33 18/23/34 34/24/35
f 33/22/33 17/25/36 18/23/34
f 34/24/35 19/26/37 35/27/38
f 34/24/35 18/23/34 19/26/37
f 35/27/38 20/28/39 36/29/40
f 35/27/38 19/26/37 20/28/39
f 36/29/40 21/30/41 37/31/42
f 36/29/40 20/28/39 21/30/41
f 37/22/42 22/32/43 38/33/44
f 37/22/42 21/25/41 22/32/43
f 38/33/44 23/26/45 39/27/46
f 38/33/44 22/32/43 23/26/45
f 39/27/46 24/28/47 40/29/48
f 39/27/46 23/26/45 24/28/47
f 40/29/48 25/34/49 41/35/50
f 40/29/48 24/28/47 25/34/49
f 41/36/50 26/23/51 42/24/52
f 41/36/50 25/37/49 26/23/51
f 42/24/52 27/26/53 43/27/54
f 42/24/52 26/23/51 27/26/53
f 43/27/54 28/38/55 44/39/56
f 43/27/54 27/26/53 28/38/55
f 44/39/56 29/30/57 45/31/58
f 44/39/56 28/38/55 29/30/57
f 45/22/58 30/23/59 46/24/60
f 45/22/58 29/25/57 30/23/59
f 46/24/60 31/26/61 47/27/62
f 46/24/60 30/23/59 31/26/61
f 47/27/62 32/28/63 48/29/64
f 47/27/62 31/26/61 32/28/63
f 48/29/64 17/30/36 33/31/33
f 48/29/64 32/28/63 17/30/36
f 49/40/65 34/24/35 50/41/66
f 49/40/65 33/22/33 34/24/35
f 50/41/66 35/27/38 51/42/67
f 50/41/66 34/24/35 35/27/38
f 51/42/67 36/29/40 52/43/68
f 51/42/67 35/27/38 36/29/40
f 52/43/68 37/31/42 53/44/69
f 52/43/68 36/29/40 37/31/42
f 53/40/69 38/33/44 54/45/70
f 53/40/69 37/22/42 38/33/44
f 54/45/70 39/27/46 55/42/71
f 54/45/70 38/33/44 39/27/46
f 55/42/71 40/29/48 56/43/72
f 55/42/71 39/27/46 40/29/48
f 56/43/72 41/35/50 57/46/73
f 56/43/72 40/29/48 41/35/50
f 57/47/73 42/24/52 58/41/74
f 57/47/73 41/36/50 42/24/52
f 58/41/74 43/27/54 59/42/75
f 58/41/74 42/24/52 43/27/54
f 59/42/75 44/39/56 60/48/76
f 59/42/75 43/27/54 44/39/56
f 60/48/76 45/31/58 61/44/77
f 60/48/76 44/39/56 45/31/58
f 61/40/77 46/24/60 62/41/78
f 61/40/77 45/22/58 46/24/60
f 62/41/78 47/27/62 63/42/79
f 62/41/78 46/24/60 47/27/62
f 63/42/79 48/29/64 64/43/80
f 63/42/79 47/27/62 48/29/64
f 64/43/80 33/31/33 49/44/65
f 64/43/80 48/29/64 33/31/33
f 66/49/81 98/50/82 99/51/83
f 66/49/81 65/52/84 98/50/82
f 67/53/85 99/54/83 100/55/86
f 67/53/85 66/56/81 99/54/83
f 68/57/87 100/58/86 101/59/88
f 68/57/87 67/60/85 100/58/86
f 69/61/89 101/59/88 102/62/90
f 69/61/89 68/57/87 101/59/88
f 70/63/91 102/62/90 103/64/92
f 70/63/91 69/61/89 102/62/90
f 71/65/93 103/66/92 104/67/94
f 71/65/93 70/68/91 103/66/92
f 72/69/95 104/67/94 105/70/96
f 72/69/95 71/65/93 104/67/94
f 73/71/97 105/70/96 106/72/98
f 73/71/97 72/69/95 105/70/96
f 74/73/99 106/72/98 107/74/100
f 74/73/99 73/71/97 106/72/98
f 75/75/101 107/76/100 108/77/102
f 75/75/101 74/78/99 107/76/100
f 76/79/103 108/77/102 109/80/104
f 76/79/103 75/75/101 108/77/102
f 77/81/105 109/80/104 110/82/106
f 77/81/105 76/79/103 109/80/104
f 78/83/107 110/82/106 111/84/108
f 78/83/107 77/81/105 110/82/106
f 79/85/109 111/86/108 112/87/110
f 79/85/109 78/88/107 111/86/108
f 80/89/111 112/87/110 97/90/112
f 80/89/111 79/85/109 112/87/110
f 65/52/84 97/90/112 98/50/82
f 65/52/84 80/89/111 97/90/112
f 65/91/84 79/92/109 80/93/111
f 65/91/84 78/94/107 79/92/109
f 65/91/84 77/95/105 78/94/107
f 65/91/84 76/96/103 77/95/105
f 65/91/84 75/97/101 76/96/103
f 65/91/84 74/98/99 75/97/101
f 65/91/84 73/99/97 74/98/99
f 65/91/84 72/100/95 73/99/97
f 65/91/84 71/101/93 72/100/95
f 65/91/84 70/102/91 71/101/93
f 65/91/84 69/103/89 70/102/91
f 65/91/84 68/104/87 69/103/89
f 65/91/84 67/105/85 68/104/87
f 65/91/84 66/106/81 67/105/85
f 16/107/32 2/108/4 1/109/1
f 16/107/32 3/110/6 2/108/4
f 16/107/32 4/111/8 3/110/6
f 16/107/32 5/112/10 4/111/8
f 16/107/32 6/113/12 5/112/10
f 16/107/32 7/114/14 6/113/12
f 16/107/32 8/115/16 7/114/14
f 16/107/32 9/116/18 8/115/16
f 16/107/32 10/117/20 9/116/18
f 16/107/32 11/118/22 10/117/20
f 16/107/32 12/119/24 11/118/22
f 16/107/32 13/120/26 12/119/24
f 16/107/32 14/121/28 13/120/26
f 16/107/32 15/122/30 14/121/28
f 64/43/80 82/1/113 81/4/114
f 64/43/80 49/44/65 82/1/113
f 49/40/65 83/15/115 82/10/113
f 49/40/65 50/41/66 83/15/115
f 50/41/66 84/13/116 83/15/115
f 50/41/66 51/42/67 84/13/116
f 51/42/67 85/4/117 84/13/116
f 51/42/67 52/43/68 85/4/117
f 52/43/68 86/1/118 85/4/117
f 52/43/68 53/44/69 86/1/118
f 53/40/69 87/21/119 86/10/118
f 53/40/69 54/45/70 87/21/119
f 54/45/70 88/13/120 87/21/119
f 54/45/70 55/42/71 88/13/120
f 55/42/71 89/4/121 88/13/120
f 55/42/71 56/43/72 89/4/121
f 56/43/72 90/18/122 89/4/121
f 56/43/72 57/46/73 90/18/122
f 57/47/73 91/15/123 90/17/122
f 57/47/73 58/41/74 91/15/123
f 58/41/74 92/13/124 91/15/123
f 58/41/74 59/42/75 92/13/124
f 59/42/75 93/12/125 92/13/124
f 59/42/75 60/48/76 93/12/125
f 60/48/76 94/1/126 93/12/125
f 60/48/76 61/44/77 94/1/126
f 61/40/77 95/15/127 94/10/126
f 61/40/77 62/41/78 95/15/127
f 62/41/78 96/13/128 95/15/127
f 62/41/78 63/42/79 96/13/128
f 63/42/79 81/4/114 96/13/128
f 63/42/79 64/43/80 81/4/114
f 81/123/114 98/124/82 97/125/112
f 81/123/114 82/126/113 98/124/82
f 82/127/113 99/128/83 98/129/82
f 82/127/113 83/130/115 99/128/83
f 83/130/115 100/131/86 99/128/83
f 83/130/115 84/132/116 100/131/86
f 84/132/116 101/133/88 100/131/86
f 84/132/116 85/134/117 101/133/88
f 85/134/117 102/135/90 101/133/88
f 85/134/117 86/136/118 102/135/90
f 86/137/118 103/138/92 102/139/90
f 86/137/118 87/140/119 103/138/92
f 87/140/119 104/141/94 103/138/92
f 87/140/119 88/142/120 104/141/94
f 88/142/120 105/143/96 104/141/94
f 88/142/120 89/144/121 105/143/96
f 89/144/121 106/145/98 105/143/96
f 89/144/121 90/136/122 106/145/98
f 90/146/122 107/147/100 106/148/98
f 90/146/122 91/149/123 107/147/100
f 91/149/123 108/141/102 107/147/100
f 91/149/123 92/150/124 108/141/102
f 92/150/124 109/151/104 108/141/102
f 92/150/124 93/152/125 109/151/104
f 93/152/125 110/153/106 109/151/104
f 93/152/125 94/154/126 110/153/106
f 94/155/126 111/156/108 110/157/106
f 94/155/126 95/158/127 111/156/108
f 95/158/127 112/159/110 111/156/108
f 95/158/127 96/160/128 112/159/110
f 96/161/128 97/125/112 112/162/110
f 96/161/128 81/123/114 97/125/112
f 17/30/36 114/2/129 113/3/130
f 17/30/36 32/28/63 114/2/129
f 32/28/63 115/5/131 114/2/129
f 32/28/63 31/26/61 115/5/131
f 31/26/61 116/14/132 115/5/131
f 31/26/61 30/23/59 116/14/132
f 30/23/59 117/9/133 116/14/132
f 30/23/59 29/25/57 117/9/133
f 29/30/57 118/11/134 117/3/133
f 29/30/57 28/38/55 118/11/134
f 28/38/55 119/5/135 118/11/134
f 28/38/55 27/26/53 119/5/135
f 27/26/53 120/14/136 119/5/135
f 27/26/53 26/23/51 120/14/136
f 26/23/51 121/16/137 120/14/136
f 26/23/51 25/37/49 121/16/137
f 25/34/49 122/2/138 121/19/137
f 25/34/49 24/28/47 122/2/138
f 24/28/47 123/5/139 122/2/138
f 24/28/47 23/26/45 123/5/139
f 23/26/45 124/20/140 123/5/139
f 23/26/45 22/32/43 124/20/140
f 22/32/43 125/9/141 124/20/140
f 22/32/43 21/25/41 125/9/141
f 21/30/41 126/2/142 125/3/141
f 21/30/41 20/28/39 126/2/142
f 20/28/39 127/5/143 126/2/142
f 20/28/39 19/26/37 127/5/143
f 19/26/37 128/14/144 127/5/143
f 19/26/37 18/23/34 128/14/144
f 18/23/34 113/9/130 128/14/144
f 18/23/34 17/25/36 113/9/130
f 113/9/130 130/15/31 129/10/3
f 113/9/130 114/14/129 130/15/31
f 114/14/129 131/13/29 130/15/31
f 114/14/129 115/5/131 131/13/29
f 115/5/131 132/4/27 131/13/29
f 115/5/131 116/2/132 132/4/27
f 116/2/132 133/1/25 132/4/27
f 116/2/132 117/3/133 133/1/25
f 117/9/133 134/21/23 133/10/25
f 117/9/133 118/20/134 134/21/23
f 118/20/134 135/13/21 134/21/23
f 118/20/134 119/5/135 135/13/21
f 119/5/135 136/4/19 135/13/21
f 119/5/135 120/2/136 136/4/19
f 120/2/136 137/18/17 136/4/19
f 120/2/136 121/19/137 137/18/17
f 121/16/137 138/15/15 137/17/17
f 121/16/137 122/14/138 138/15/15
f 122/14/138 139/13/13 138/15/15
f 122/14/138 123/5/139 139/13/13
f 123/5/139 140/12/11 139/13/13
f 123/5/139 124/11/140 140/12/11
f 124/11/140 141/1/9 140/12/11
f 124/11/140 125/3/141 141/1/9
f 125/9/141 142/15/7 141/10/9
f 125/9/141 126/14/142 142/15/7
f 126/14/142 143/13/5 142/15/7
f 126/14/142 127/5/143 143/13/5
f 127/5/143 144/4/2 143/13/5
f 127/5/143 128/2/144 144/4/2
f 128/2/144 129/1/3 144/4/2
f 128/2/144 113/3/130 129/1/3
# 284 triangles in group

# 284 triangles total

