# Wavefront OBJ exported by MilkShape 3D

mtllib book.mtl

v -124.857452 -233.001877 -14.938600
v -124.857452 84.952164 -14.473716
v -124.857452 -233.001877 40.191704
v -124.857452 84.952164 40.656586
v 62.978279 -233.001877 -14.938600
v 62.978279 -233.001877 40.191704
v 62.978279 84.952164 40.656586
v 62.978279 84.952164 -14.473716
v 62.978279 84.952164 -6.149920
v 62.978279 -233.001877 -6.457015
v 62.978279 84.952164 33.209961
v 62.978279 -233.001877 32.770527
v -124.857452 84.952164 33.075928
v -124.857452 84.952164 -5.383879
v -124.857452 -233.001877 32.701813
v -124.857452 -233.001877 -6.675883
v -116.524986 84.952164 -5.414419
v -116.524986 84.952164 33.082714
v -115.910194 -233.001877 -6.664855
v -116.808502 -233.001877 32.705208
v -116.808502 -224.933548 32.705208
v 62.978279 -224.933548 32.770527
v 62.978279 -224.933548 40.191704
v -124.857452 -224.933548 40.191704
v -132.604980 -224.933548 32.701813
v -132.604980 -224.933548 -6.675883
v -124.857452 -224.933548 -14.938600
v 62.978279 -224.933548 -14.938600
v 62.978279 -224.933548 -6.457015
v -115.910194 -224.933548 -6.664855
v 62.978279 78.742027 -6.614804
v 62.978279 78.742027 -14.938600
v -124.857452 78.742027 -14.938600
v -132.604980 78.742027 -5.847915
v -132.604980 78.742027 32.611893
v -124.857452 78.742027 40.191704
v 62.978279 78.742027 40.191704
v 62.978279 78.742027 32.745079
v -116.524986 78.742027 32.617828
v -116.524986 78.742027 -5.879303
v 50.581043 -224.933548 -6.457015
v 50.581043 -233.001877 -6.457015
v 50.581043 -233.001877 -14.938600
v 50.581043 -224.933548 -14.938600
v 50.581043 78.742027 -14.938600
v 50.581043 84.952164 -14.473716
v 50.581043 84.952164 -6.149920
v 50.581043 78.742027 -6.614804
v 50.581043 -224.933548 40.191704
v 50.581043 -233.001877 40.191704
v 50.581043 -233.001877 32.770527
v 50.581043 -224.933548 32.770527
v 50.581043 78.742027 32.745079
v 50.581043 84.952164 33.209961
v 50.581043 84.952164 40.656586
v 50.581043 78.742027 40.191704
# 56 vertices

vt 0.769531 0.996094
vt 0.132813 0.984375
vt 0.144531 0.984375
vt 0.144531 0.960938
vt 0.070313 0.988281
vt 0.105469 0.964844
vt 0.105469 0.988281
vt 0.070313 0.964844
vt 0.058594 0.968750
vt 0.097656 0.996094
vt 0.097656 0.968750
vt 0.058594 0.996094
vt 0.773438 0.972656
vt 0.734375 0.019531
vt 0.734375 0.972656
vt 0.773438 0.019531
vt 0.058594 0.003906
vt 0.097656 0.023438
vt 0.097656 0.003906
vt 0.058594 0.023438
vt 0.773438 0.996094
vt 0.734375 0.996094
vt 0.070313 0.019531
vt 0.105469 0.003906
vt 0.105469 0.019531
vt 0.070313 0.003906
vt 0.023438 0.984375
vt 0.132813 0.960938
vt 0.023438 0.960938
vt 0.011719 0.984375
vt 0.011719 0.960938
vt 0.023438 0.000000
vt 0.011719 0.000000
vt 0.011719 0.019531
vt 0.984375 0.011719
vt 0.804688 0.542969
vt 0.984375 0.539063
vt 0.804688 0.011719
vt 0.144531 0.000000
vt 0.132813 0.019531
vt 0.144531 0.019531
vt 0.023438 0.019531
vt 0.734375 0.003906
vt 0.773438 0.003906
vt 0.804688 0.007813
vt 0.808594 0.539063
vt 0.984375 0.007813
vt 0.089844 0.968750
vt 0.089844 0.992188
vt 0.769531 0.968750
vt 0.769531 0.023438
vt 0.769531 0.003906
vt 0.089844 0.007813
vt 0.089844 0.023438
vt 0.773438 0.960938
vt 0.773438 0.984375
vt 0.742188 0.996094
vt 0.742188 0.968750
vt 0.804688 0.988281
vt 0.984375 0.988281
vt 0.738281 0.023438
vt 0.738281 0.003906
vt 0.769531 0.007813
# 63 texture coordinates

vn -0.472444 -0.872754 0.122867
vn -0.506348 -0.094527 0.857133
vn -0.895410 -0.368390 0.250059
vn -0.301511 -0.904534 0.301511
vn 0.408248 -0.816497 -0.408248
vn -0.000588 -0.707107 0.707106
vn 0.000000 -0.707107 -0.707107
vn 0.666667 -0.333333 0.666667
vn 0.000000 0.000000 1.000000
vn 0.707107 0.000000 0.707107
vn 0.418802 0.806341 0.417634
vn 0.000345 0.733025 -0.680202
vn 0.000000 0.680202 0.733024
vn 0.655875 0.376898 -0.654045
vn 0.707107 0.000000 -0.707107
vn 0.000000 0.000000 -1.000000
vn 0.187029 0.329476 0.925454
vn 0.408054 -0.408202 0.816617
vn 0.707329 -0.035079 0.706013
vn 0.432159 0.264352 -0.862181
vn 0.707327 0.017561 -0.706669
vn 0.001075 0.680203 0.733023
vn 0.192006 -0.961483 0.196683
vn 0.487714 -0.731476 -0.476527
vn -0.468739 -0.883337 0.000000
vn -0.432619 0.896893 -0.091779
vn 0.189983 0.963363 -0.189309
vn 0.500022 0.709593 0.496443
vn -0.396769 0.917918 0.000000
vn 0.192594 -0.192476 -0.962217
vn 0.000000 -0.037351 0.999302
vn -0.885579 -0.262763 -0.383020
vn -0.356523 -0.661699 -0.659580
vn -0.316807 0.000000 -0.948490
vn -0.528781 0.149675 -0.835457
vn -0.874438 0.435944 -0.212862
vn -0.295554 0.908726 -0.294730
vn 0.000000 0.037351 -0.999302
vn 0.659372 -0.330184 0.675431
vn 0.409836 -0.819565 -0.400435
vn -0.855961 0.297039 0.423201
vn -0.333765 0.649883 0.682827
vn -0.301024 -0.027586 0.953217
vn 0.563791 0.605418 -0.561791
vn 0.593962 0.547221 0.589710
# 45 normals

g 
usemtl mat_book_1
s 1
f 15/1/1 24/1/2 25/1/3
f 15/2/1 3/3/4 24/4/2
f 5/1/5 42/1/6 43/1/7
f 5/1/5 10/1/8 42/1/6
f 6/5/8 49/6/9 50/7/6
f 6/5/8 23/8/10 49/6/9
f 7/1/11 54/1/12 55/1/13
f 7/1/11 11/1/14 54/1/12
f 10/1/8 28/1/15 29/1/10
f 10/1/8 5/1/5 28/1/15
f 28/9/15 43/10/7 44/11/16
f 28/9/15 5/12/5 43/10/7
f 29/13/10 48/14/17 41/15/18
f 29/13/10 31/16/19 48/14/17
f 6/1/8 22/1/15 23/1/10
f 6/1/8 12/1/5 22/1/15
f 11/17/14 53/18/20 54/19/12
f 11/17/14 38/20/21 53/18/20
f 9/1/11 46/1/12 47/1/22
f 9/1/11 8/1/14 46/1/12
f 12/1/5 50/1/6 51/1/7
f 12/1/5 6/1/8 50/1/6
f 15/1/1 19/1/23 20/1/24
f 15/1/1 16/1/25 19/1/23
f 14/1/26 18/1/27 17/1/28
f 14/1/26 13/1/29 18/1/27
f 22/9/15 51/10/7 52/11/30
f 22/9/15 12/12/5 51/10/7
f 10/21/8 41/15/18 42/22/6
f 10/21/8 29/13/10 41/15/18
f 11/1/14 37/1/19 38/1/21
f 11/1/14 7/1/11 37/1/19
f 37/23/19 55/24/13 56/25/31
f 37/23/19 7/26/11 55/24/13
f 16/27/25 25/28/3 26/29/32
f 16/27/25 15/2/1 25/28/3
f 1/30/33 26/29/32 27/31/34
f 1/30/33 16/27/25 26/29/32
f 14/1/26 33/1/35 34/1/36
f 14/32/26 2/33/37 33/34/35
f 8/17/14 45/18/38 46/19/12
f 8/17/14 32/20/21 45/18/38
f 8/1/14 31/1/19 32/1/21
f 8/1/14 9/1/11 31/1/19
f 20/1/24 30/1/39 21/1/40
f 20/1/24 19/1/23 30/1/39
f 41/35/18 21/36/40 30/37/39
f 41/35/18 52/38/30 21/36/40
f 29/1/10 32/1/21 31/1/19
f 29/1/10 28/1/15 32/1/21
f 32/20/21 44/11/16 45/18/38
f 32/20/21 28/9/15 44/11/16
f 13/1/29 34/1/36 35/1/41
f 13/1/29 14/1/26 34/1/36
f 4/39/42 35/40/41 36/41/43
f 4/1/42 13/1/29 35/1/41
f 34/42/36 25/28/3 35/40/41
f 34/42/36 26/29/32 25/28/3
f 23/8/10 56/25/31 49/6/9
f 23/8/10 37/23/19 56/25/31
f 23/1/10 38/1/21 37/1/19
f 23/1/10 22/1/15 38/1/21
f 17/1/28 39/1/44 40/1/45
f 17/1/28 18/1/27 39/1/44
f 31/16/19 47/43/22 48/14/17
f 31/16/19 9/44/11 47/43/22
f 39/37/44 48/45/17 40/46/45
f 39/37/44 53/47/20 48/45/17
f 30/48/39 42/22/6 41/15/18
f 30/48/39 19/49/23 42/22/6
f 19/1/23 43/1/7 42/1/6
f 19/1/23 1/1/33 43/1/7
f 19/1/23 16/1/25 1/1/33
f 1/1/33 44/11/16 43/10/7
f 1/1/33 27/50/34 44/11/16
f 27/50/34 45/18/38 44/11/16
f 27/50/34 33/51/35 45/18/38
f 33/51/35 46/19/12 45/18/38
f 33/51/35 2/52/37 46/19/12
f 2/1/37 47/1/22 46/1/12
f 2/1/37 17/1/28 47/1/22
f 2/1/37 14/1/26 17/1/28
f 17/53/28 48/14/17 47/43/22
f 17/53/28 40/54/45 48/14/17
f 38/20/21 52/11/30 53/18/20
f 38/20/21 22/9/15 52/11/30
f 24/55/2 50/7/6 49/6/9
f 24/55/2 3/56/4 50/7/6
f 3/1/4 51/1/7 50/1/6
f 3/1/4 20/1/24 51/1/7
f 3/1/4 15/1/1 20/1/24
f 20/57/24 52/11/30 51/10/7
f 20/57/24 21/58/40 52/11/30
f 41/59/18 53/35/20 52/60/30
f 41/59/18 48/38/17 53/35/20
f 39/61/44 54/19/12 53/18/20
f 39/61/44 18/62/27 54/19/12
f 18/1/27 55/1/13 54/1/12
f 18/1/27 4/1/42 55/1/13
f 18/1/27 13/1/29 4/1/42
f 4/63/42 56/25/31 55/24/13
f 4/63/42 36/51/43 56/25/31
f 36/51/43 49/6/9 56/25/31
f 36/51/43 24/55/2 49/6/9
f 33/34/35 26/29/32 34/42/36
f 33/34/35 27/31/34 26/29/32
f 24/4/2 35/40/41 25/28/3
f 24/4/2 36/41/43 35/40/41
# 108 triangles in group

# 108 triangles total

