# Wavefront OBJ exported by MilkShape 3D

mtllib gem2.mtl

v 16.273207 10.531213 24.737127
v 24.903843 10.531213 16.106491
v 24.903843 10.531213 -12.106487
v 16.273207 10.531213 -20.737123
v -11.939772 10.531213 -20.737123
v -20.570408 10.531213 -12.106487
v -20.570408 10.531213 16.106491
v -11.939772 10.531213 24.737127
v 16.273207 19.161640 16.106491
v 16.273207 19.161640 -12.106487
v -11.939772 19.161640 -12.106487
v -11.939772 19.161640 16.106491
v 2.167065 -22.818253 2.000349
# 13 vertices

vt 0.519531 0.242188
vt 0.753906 0.937500
vt 0.601563 0.242188
vt 0.988281 0.242188
vt 0.906250 0.242188
vt 0.386719 0.015625
vt 0.386719 0.187500
vt 0.468750 0.187500
vt 0.093750 0.015625
vt 0.093750 0.187500
vt 0.011719 0.187500
vt 0.011719 0.765625
vt 0.093750 0.765625
vt 0.093750 0.937500
vt 0.386719 0.937500
vt 0.386719 0.765625
vt 0.468750 0.765625
# 17 texture coordinates

vn -0.310658 0.222510 -0.924111
vn 0.000003 -1.000000 0.000003
vn -0.919633 0.036376 -0.391090
vn 0.310658 0.222516 0.924109
vn 0.919633 0.036385 0.391090
vn 0.924110 0.222514 -0.310658
vn 0.391091 0.036378 -0.919633
vn -0.924110 0.222512 0.310658
vn -0.391090 0.036382 0.919633
vn 0.378441 0.892866 0.244075
vn 0.292399 0.841998 -0.453368
vn -0.378441 0.892866 -0.244075
vn -0.292399 0.841998 0.453368
# 13 normals

g 
usemtl mat_gem2_1
s 1
f 5/1/1 13/2/2 6/3/3
f 1/4/4 13/2/2 2/5/5
f 3/3/6 2/5/5 13/2/2
f 4/1/7 3/3/6 13/2/2
f 5/5/1 4/3/7 13/2/2
f 7/5/8 6/3/3 13/2/2
f 8/4/9 7/5/8 13/2/2
f 1/5/4 8/3/9 13/2/2
f 2/6/5 9/7/10 1/8/4
f 3/9/6 9/7/10 2/6/5
f 3/9/6 10/10/11 9/7/10
f 4/11/7 10/10/11 3/9/6
f 5/12/1 10/10/11 4/11/7
f 5/12/1 11/13/12 10/10/11
f 6/14/3 11/13/12 5/12/1
f 7/15/8 11/13/12 6/14/3
f 7/15/8 12/16/13 11/13/12
f 8/17/9 12/16/13 7/15/8
f 1/8/4 12/16/13 8/17/9
f 1/8/4 9/7/10 12/16/13
f 9/7/10 11/13/12 12/16/13
f 9/7/10 10/10/11 11/13/12
# 22 triangles in group

# 22 triangles total

