# Wavefront OBJ exported by MilkShape 3D

mtllib guava.mtl

v -1.454320 12.123594 0.711956
v -0.314512 -7.419557 0.043383
v -0.314512 8.246574 2.734599
v 1.305423 8.246574 2.257675
v 2.306648 8.246574 1.009320
v 2.306648 8.246574 -0.533761
v 1.305423 8.246574 -1.782116
v -0.314512 8.246574 -2.258821
v -1.934239 8.246574 -1.782116
v -2.935464 8.246574 -0.533761
v -2.935464 8.246574 1.009320
v -1.934239 8.246574 2.257675
v -0.314512 6.391712 4.851089
v 2.678711 6.391712 3.969987
v 4.528782 6.391712 1.663388
v 4.528782 6.391712 -1.187829
v 2.678711 6.391712 -3.494428
v -0.314512 6.391712 -4.375530
v -3.307527 6.391712 -3.494428
v -5.157598 6.391712 -1.187829
v -5.157598 6.391712 1.663388
v -3.307527 6.391712 3.969987
v -0.314512 3.615383 6.697027
v 3.596326 3.615383 5.426255
v 6.013480 3.615383 2.099433
v 6.013480 3.615383 -2.012446
v 3.596326 3.615383 -5.339269
v -0.314512 3.615383 -6.610041
v -4.225142 3.615383 -5.339269
v -6.642295 3.615383 -2.012446
v -6.642295 3.615383 2.099433
v -4.225142 3.615383 5.426255
v -0.314512 0.341044 7.245161
v 3.918641 0.341044 5.869772
v 6.534786 0.341044 2.268884
v 6.534786 0.341044 -2.181897
v 3.918641 0.341044 -5.782786
v -0.314512 0.341044 -7.158175
v -4.547457 0.341044 -5.782786
v -7.163601 0.341044 -2.181897
v -7.163601 0.341044 2.268884
v -4.547457 0.341044 5.869772
v -0.314512 -2.933593 6.697027
v 3.596326 -2.933593 5.426255
v 6.013480 -2.933593 2.099433
v 6.013480 -2.933593 -2.012446
v 3.596326 -2.933593 -5.339269
v -0.314512 -2.933593 -6.610041
v -4.225142 -2.933593 -5.339269
v -6.642295 -2.933593 -2.012446
v -6.642295 -2.933593 2.099433
v -4.225142 -2.933593 5.426255
v -0.314512 -5.709624 5.135924
v 2.678711 -5.709624 4.163394
v 4.528782 -5.709624 1.617014
v 4.528782 -5.709624 -1.530028
v 2.678711 -5.709624 -4.076408
v -0.314512 -5.709624 -5.048938
v -3.307527 -5.709624 -4.076408
v -5.157598 -5.709624 -1.530028
v -5.157598 -5.709624 1.617014
v -3.307527 -5.709624 4.163394
v -0.314512 -6.768267 2.799434
v 1.305423 -6.768267 2.273059
v 2.306648 -6.768267 0.895034
v 2.306648 -6.768267 -0.808048
v 1.305423 -6.768267 -2.186073
v -0.314512 -6.768267 -2.712448
v -1.934239 -6.768267 -2.186073
v -2.935464 -6.768267 -0.808048
v -2.935464 -6.768267 0.895034
v -1.934239 -6.768267 2.273059
v -1.454320 11.969122 1.304046
v -1.727933 12.013556 1.053056
v -1.774336 12.043973 0.806242
v -1.830772 12.029957 0.601187
v -1.685083 12.030851 0.424483
v -1.454320 12.028168 0.346681
v -1.192622 12.018327 0.385582
v -0.965831 12.002223 0.568220
v -0.980463 12.005802 0.851517
v -1.109849 11.984927 1.141628
v -0.028150 8.826591 0.153493
v -0.161089 8.836135 0.046680
v -0.314512 8.842098 0.023823
v -0.449542 8.843590 0.069317
v -0.534824 8.842994 0.172834
v -0.501798 8.851343 0.293054
v -0.474625 8.833450 0.437450
v -0.314512 8.807507 0.584484
v -0.112595 8.816751 0.489538
v -0.036720 8.828978 0.319428
v -0.112804 9.779370 0.270197
v -0.304897 9.793088 0.115691
v -0.526254 9.801438 0.082944
v -0.721273 9.803526 0.148438
v -2.731248 9.726587 2.128224
v -2.659971 9.664858 2.411302
v -2.586603 9.656807 2.747786
v -2.455754 9.709888 3.333941
v -0.234665 9.764758 0.755253
v -0.125346 9.782352 0.509758
v 0.068001 10.421117 0.382505
v -0.163597 10.437519 0.202504
v -0.437000 10.447062 0.172175
v -0.682395 10.449149 0.260966
v -2.698013 9.873605 2.265147
v -2.605415 9.913565 2.603610
v -2.525359 9.857502 3.110204
v -2.349988 9.787124 3.388227
v -0.104652 10.404716 0.980309
v 0.042082 10.428274 0.675912
v -0.790251 10.468234 0.658989
v -0.842089 10.448851 0.449099
v -0.844597 9.802929 0.298109
v -0.796940 9.814857 0.471516
v -0.757434 9.788914 0.680308
v -0.526254 9.751339 0.892616
v -0.472953 10.384438 1.160749
v -0.750745 10.433940 0.911957
v -2.131349 10.002431 2.065147
v -2.133857 9.740902 1.914377
v -2.086200 9.536629 2.087784
v -2.046903 9.510983 2.296356
v -1.980852 9.689311 2.661412
v -1.889508 9.938018 2.687786
v -2.040005 10.180164 2.528005
v -2.079720 10.214458 2.275038
# 128 vertices

vt 0.402344 0.003906
vt 0.621094 0.527344
vt 0.402344 0.527344
vt 0.621094 0.003906
vt 0.218750 0.003906
vt 0.218750 0.527344
vt 0.058594 0.003906
vt 0.058594 0.527344
vt 0.171875 0.003906
vt 0.003906 0.527344
vt 0.171875 0.527344
vt 0.003906 0.003906
vt 0.324219 0.003906
vt 0.324219 0.527344
vt 0.464844 0.003906
vt 0.464844 0.527344
vt 0.593750 0.003906
vt 0.593750 0.527344
vt 0.265625 0.003906
vt 0.058594 0.988281
vt 0.265625 0.988281
vt 0.457031 0.988281
vt 0.570313 0.003906
vt 0.683594 0.988281
vt 0.769531 0.003906
vt 0.003906 0.250000
vt 0.167969 0.125000
vt 0.003906 0.125000
vt 0.167969 0.250000
vt 0.332031 0.125000
vt 0.332031 0.250000
vt 0.496094 0.125000
vt 0.496094 0.250000
vt 0.660156 0.125000
vt 0.660156 0.250000
vt 0.824219 0.125000
vt 0.824219 0.250000
vt 0.875000 0.250000
vt 0.710938 0.125000
vt 0.875000 0.125000
vt 0.710938 0.250000
vt 0.550781 0.125000
vt 0.550781 0.250000
vt 0.386719 0.125000
vt 0.386719 0.250000
vt 0.222656 0.125000
vt 0.222656 0.250000
vt 0.058594 0.125000
vt 0.058594 0.250000
vt 0.003906 0.375000
vt 0.167969 0.375000
vt 0.332031 0.375000
vt 0.496094 0.375000
vt 0.660156 0.375000
vt 0.824219 0.375000
vt 0.875000 0.375000
vt 0.710938 0.375000
vt 0.550781 0.375000
vt 0.386719 0.375000
vt 0.222656 0.375000
vt 0.058594 0.375000
vt 0.003906 0.496094
vt 0.167969 0.496094
vt 0.332031 0.496094
vt 0.496094 0.496094
vt 0.660156 0.496094
vt 0.824219 0.496094
vt 0.875000 0.496094
vt 0.710938 0.496094
vt 0.550781 0.496094
vt 0.386719 0.496094
vt 0.222656 0.496094
vt 0.058594 0.496094
vt 0.003906 0.621094
vt 0.167969 0.621094
vt 0.332031 0.621094
vt 0.496094 0.621094
vt 0.660156 0.621094
vt 0.824219 0.621094
vt 0.875000 0.621094
vt 0.710938 0.621094
vt 0.550781 0.621094
vt 0.386719 0.621094
vt 0.222656 0.621094
vt 0.058594 0.621094
vt 0.003906 0.742188
vt 0.167969 0.742188
vt 0.332031 0.742188
vt 0.496094 0.742188
vt 0.660156 0.742188
vt 0.824219 0.742188
vt 0.875000 0.742188
vt 0.710938 0.742188
vt 0.550781 0.742188
vt 0.386719 0.742188
vt 0.222656 0.742188
vt 0.058594 0.742188
vt 0.003906 0.867188
vt 0.167969 0.867188
vt 0.332031 0.867188
vt 0.496094 0.867188
vt 0.660156 0.867188
vt 0.824219 0.867188
vt 0.875000 0.867188
vt 0.710938 0.867188
vt 0.550781 0.867188
vt 0.386719 0.867188
vt 0.222656 0.867188
vt 0.058594 0.867188
vt 0.085938 0.988281
vt 0.250000 0.988281
vt 0.414063 0.988281
vt 0.578125 0.988281
vt 0.742188 0.988281
vt 0.792969 0.988281
vt 0.628906 0.988281
vt 0.468750 0.988281
vt 0.304688 0.988281
vt 0.140625 0.988281
vt 0.140625 0.003906
vt 0.179688 0.066406
vt 0.097656 0.066406
vt 0.304688 0.003906
vt 0.343750 0.066406
vt 0.261719 0.066406
vt 0.468750 0.003906
vt 0.507813 0.066406
vt 0.425781 0.066406
vt 0.628906 0.003906
vt 0.671875 0.066406
vt 0.589844 0.066406
vt 0.792969 0.003906
vt 0.835938 0.066406
vt 0.753906 0.066406
vt 0.957031 0.003906
vt 0.988281 0.066406
vt 0.917969 0.066406
vt 0.578125 0.003906
vt 0.535156 0.066406
vt 0.617188 0.066406
vt 0.414063 0.003906
vt 0.371094 0.066406
vt 0.453125 0.066406
vt 0.250000 0.003906
vt 0.207031 0.066406
vt 0.289063 0.066406
vt 0.085938 0.003906
vt 0.042969 0.066406
vt 0.125000 0.066406
vt 0.781250 0.066406
vt 0.699219 0.066406
vt 0.003906 0.988281
vt 0.171875 0.714844
vt 0.003906 0.714844
vt 0.171875 0.988281
vt 0.324219 0.714844
vt 0.324219 0.988281
vt 0.464844 0.714844
vt 0.464844 0.988281
vt 0.593750 0.714844
vt 0.593750 0.988281
vt 0.203125 0.988281
vt 0.289063 0.003906
vt 0.113281 0.003906
vt 0.386719 0.988281
vt 0.492188 0.003906
vt 0.546875 0.988281
vt 0.851563 0.003906
vt 0.847656 0.988281
vt 0.621094 0.988281
vt 0.402344 0.714844
vt 0.621094 0.714844
vt 0.402344 0.988281
vt 0.218750 0.714844
vt 0.218750 0.988281
vt 0.058594 0.714844
vt 0.718750 0.527344
vt 0.718750 0.714844
vt 0.980469 0.714844
vt 0.835938 0.527344
vt 0.980469 0.527344
vt 0.835938 0.714844
vt 0.851563 0.988281
vt 0.847656 0.003906
vt 0.718750 0.003906
vt 0.718750 0.988281
vt 0.980469 0.988281
vt 0.835938 0.988281
vt 0.835938 0.003906
vt 0.980469 0.003906
vt 0.132813 0.988281
vt 0.472656 0.003906
vt 0.132813 0.003906
vt 0.472656 0.988281
vt 0.582031 0.003906
vt 0.582031 0.988281
vt 0.710938 0.003906
vt 0.710938 0.988281
vt 0.988281 0.988281
vt 0.796875 0.003906
vt 0.988281 0.003906
vt 0.796875 0.988281
vt 0.437500 0.003906
vt 0.437500 0.988281
vt 0.210938 0.003906
vt 0.210938 0.988281
# 206 texture coordinates

vn 0.450285 0.651960 0.610075
vn 0.379112 0.081829 0.921726
vn 0.746463 0.094855 0.658631
vn -0.286352 0.396791 0.872101
vn 0.626747 0.747981 0.218430
vn 0.960082 0.118735 0.253269
vn 0.603767 0.779921 -0.164890
vn 0.904093 0.172781 -0.390849
vn 0.356582 0.694971 -0.624391
vn 0.383203 0.155037 -0.910560
vn -0.013018 0.548028 -0.836359
vn -0.105955 0.062077 -0.992431
vn -0.459598 0.372073 -0.806431
vn -0.597674 -0.034651 -0.800990
vn -0.904123 0.216655 -0.368270
vn -0.934725 0.021896 -0.354697
vn -0.795600 0.599184 0.089438
vn -0.522433 0.717513 -0.460694
vn -0.687514 0.703208 -0.181170
vn -0.391927 0.914660 -0.098947
vn -0.001517 0.935843 0.352413
vn -0.708538 0.531321 0.464406
vn 0.675186 0.283164 0.681133
vn -0.085727 0.082102 0.992930
vn -0.012969 0.655419 0.755154
vn 0.234634 0.889209 0.392752
vn -0.020127 0.884245 0.466590
vn 0.413230 0.659221 0.628227
vn 0.405106 0.898587 0.168614
vn 0.711561 0.653785 0.257382
vn 0.419090 0.899327 -0.124796
vn 0.717231 0.655159 -0.237373
vn 0.268917 0.890320 -0.367442
vn 0.425752 0.672127 -0.605789
vn 0.020121 0.884246 -0.466588
vn 0.010177 0.689199 -0.724501
vn -0.234796 0.889232 -0.392602
vn -0.400649 0.689497 -0.603385
vn -0.404940 0.898575 -0.169072
vn -0.699562 0.669611 -0.249466
vn -0.419080 0.899312 0.124937
vn -0.723547 0.646628 0.241563
vn -0.268874 0.890311 0.367496
vn -0.440117 0.644362 0.625375
vn -0.011257 0.365373 0.930793
vn 0.541533 0.345987 0.766182
vn 0.895185 0.332188 0.297144
vn 0.889157 0.357338 -0.285848
vn 0.546242 0.397162 -0.737484
vn 0.013941 0.408532 -0.912637
vn -0.533107 0.380889 -0.755460
vn -0.892254 0.342328 -0.294438
vn -0.895211 0.336848 0.291771
vn -0.552149 0.358414 0.752775
vn -0.000008 0.000007 1.000000
vn 0.587785 0.000010 0.809017
vn 0.951057 0.000000 0.309016
vn 0.951057 0.000015 -0.309016
vn 0.587785 0.000005 -0.809017
vn -0.000007 0.000008 -1.000000
vn -0.587791 0.000010 -0.809013
vn -0.951057 0.000000 -0.309016
vn -0.951057 0.000015 0.309016
vn -0.587791 0.000005 0.809013
vn 0.005767 -0.333450 0.942750
vn 0.558807 -0.333455 0.759304
vn 0.898392 -0.333449 0.285837
vn 0.894820 -0.333457 -0.296821
vn 0.549458 -0.333454 -0.766097
vn -0.005783 -0.333450 -0.942750
vn -0.558813 -0.333455 -0.759299
vn -0.898392 -0.333449 -0.285837
vn -0.894820 -0.333457 0.296821
vn -0.549464 -0.333453 0.766093
vn 0.025053 -0.740178 0.671944
vn 0.415229 -0.740177 0.528888
vn 0.646798 -0.740180 0.183812
vn 0.631311 -0.740179 -0.231477
vn 0.374686 -0.740176 -0.558345
vn -0.025067 -0.740178 -0.671943
vn -0.415235 -0.740176 -0.528884
vn -0.646798 -0.740180 -0.183812
vn -0.631311 -0.740179 0.231477
vn -0.374693 -0.740176 0.558342
vn 0.026858 -0.939770 0.340750
vn 0.222024 -0.939769 0.259884
vn 0.332376 -0.939769 0.079751
vn 0.315775 -0.939768 -0.130852
vn 0.178558 -0.939767 -0.291470
vn -0.026870 -0.939768 -0.340755
vn -0.222034 -0.939765 -0.259889
vn -0.332384 -0.939766 -0.079754
vn -0.315779 -0.939767 0.130852
vn -0.178565 -0.939767 0.291466
vn -0.000006 -1.000000 -0.000005
vn -0.000080 1.000000 -0.000003
vn -0.900864 0.145054 0.409149
vn -0.961173 0.114704 0.250978
vn 0.287932 0.671046 -0.683222
vn 0.622680 0.700483 -0.348702
vn -0.087665 0.629683 -0.771890
vn -0.494670 0.579219 -0.647925
vn -0.833055 0.543410 -0.103562
vn -0.857315 0.484392 0.174287
vn -0.704812 0.481634 0.520835
vn 0.029751 0.559115 0.828556
vn 0.585212 0.611843 0.532141
vn 0.743131 0.646562 0.172377
vn 0.396699 0.101081 -0.912366
vn 0.910843 -0.005972 -0.412710
vn -0.088450 0.111044 -0.989872
vn -0.517727 0.031156 -0.854979
vn -0.802463 -0.276029 -0.529019
vn -0.649816 -0.269598 -0.710672
vn -0.819131 -0.572430 -0.036708
vn -0.917524 0.056511 -0.393645
vn -0.248214 -0.939271 -0.236981
vn -0.741977 -0.645196 0.182189
vn 0.107094 -0.991350 0.075874
vn 0.048790 -0.907719 0.416731
vn 0.534169 -0.767305 0.354833
vn 0.661101 -0.271236 0.699555
vn 0.177092 -0.572410 0.800616
vn 0.962425 -0.134191 0.236075
vn -0.965890 0.257648 0.025956
vn -0.524723 -0.846320 0.091694
vn -0.462429 -0.857163 0.226785
vn -0.678676 0.483762 0.552606
# 128 normals

g 
usemtl mat_guava_1
s 1
f 82/1/1 119/2/2 111/3/3
f 82/1/1 73/4/4 119/2/2
f 81/5/5 111/3/3 112/6/6
f 81/5/5 82/1/1 111/3/3
f 80/7/7 112/6/6 103/8/8
f 80/7/7 81/5/5 112/6/6
f 79/9/9 103/10/8 104/11/10
f 79/9/9 80/12/7 103/10/8
f 78/13/11 104/11/10 105/14/12
f 78/13/11 79/9/9 104/11/10
f 77/15/13 105/14/12 106/16/14
f 77/15/13 78/13/11 105/14/12
f 76/17/15 106/16/14 114/18/16
f 76/17/15 77/15/13 106/16/14
f 108/19/17 121/20/18 107/7/19
f 108/19/17 128/21/20 121/20/18
f 127/22/21 108/19/17 109/23/22
f 127/22/21 128/21/20 108/19/17
f 126/24/23 109/23/22 110/25/24
f 126/24/23 127/22/21 109/23/22
f 13/26/25 4/27/26 3/28/27
f 13/26/25 14/29/28 4/27/26
f 14/29/28 5/30/29 4/27/26
f 14/29/28 15/31/30 5/30/29
f 15/31/30 6/32/31 5/30/29
f 15/31/30 16/33/32 6/32/31
f 16/33/32 7/34/33 6/32/31
f 16/33/32 17/35/34 7/34/33
f 17/35/34 8/36/35 7/34/33
f 17/35/34 18/37/36 8/36/35
f 18/38/36 9/39/37 8/40/35
f 18/38/36 19/41/38 9/39/37
f 19/41/38 10/42/39 9/39/37
f 19/41/38 20/43/40 10/42/39
f 20/43/40 11/44/41 10/42/39
f 20/43/40 21/45/42 11/44/41
f 21/45/42 12/46/43 11/44/41
f 21/45/42 22/47/44 12/46/43
f 22/47/44 3/48/27 12/46/43
f 22/47/44 13/49/25 3/48/27
f 23/50/45 14/29/28 13/26/25
f 23/50/45 24/51/46 14/29/28
f 24/51/46 15/31/30 14/29/28
f 24/51/46 25/52/47 15/31/30
f 25/52/47 16/33/32 15/31/30
f 25/52/47 26/53/48 16/33/32
f 26/53/48 17/35/34 16/33/32
f 26/53/48 27/54/49 17/35/34
f 27/54/49 18/37/36 17/35/34
f 27/54/49 28/55/50 18/37/36
f 28/56/50 19/41/38 18/38/36
f 28/56/50 29/57/51 19/41/38
f 29/57/51 20/43/40 19/41/38
f 29/57/51 30/58/52 20/43/40
f 30/58/52 21/45/42 20/43/40
f 30/58/52 31/59/53 21/45/42
f 31/59/53 22/47/44 21/45/42
f 31/59/53 32/60/54 22/47/44
f 32/60/54 13/49/25 22/47/44
f 32/60/54 23/61/45 13/49/25
f 33/62/55 24/51/46 23/50/45
f 33/62/55 34/63/56 24/51/46
f 34/63/56 25/52/47 24/51/46
f 34/63/56 35/64/57 25/52/47
f 35/64/57 26/53/48 25/52/47
f 35/64/57 36/65/58 26/53/48
f 36/65/58 27/54/49 26/53/48
f 36/65/58 37/66/59 27/54/49
f 37/66/59 28/55/50 27/54/49
f 37/66/59 38/67/60 28/55/50
f 38/68/60 29/57/51 28/56/50
f 38/68/60 39/69/61 29/57/51
f 39/69/61 30/58/52 29/57/51
f 39/69/61 40/70/62 30/58/52
f 40/70/62 31/59/53 30/58/52
f 40/70/62 41/71/63 31/59/53
f 41/71/63 32/60/54 31/59/53
f 41/71/63 42/72/64 32/60/54
f 42/72/64 23/61/45 32/60/54
f 42/72/64 33/73/55 23/61/45
f 43/74/65 34/63/56 33/62/55
f 43/74/65 44/75/66 34/63/56
f 44/75/66 35/64/57 34/63/56
f 44/75/66 45/76/67 35/64/57
f 45/76/67 36/65/58 35/64/57
f 45/76/67 46/77/68 36/65/58
f 46/77/68 37/66/59 36/65/58
f 46/77/68 47/78/69 37/66/59
f 47/78/69 38/67/60 37/66/59
f 47/78/69 48/79/70 38/67/60
f 48/80/70 39/69/61 38/68/60
f 48/80/70 49/81/71 39/69/61
f 49/81/71 40/70/62 39/69/61
f 49/81/71 50/82/72 40/70/62
f 50/82/72 41/71/63 40/70/62
f 50/82/72 51/83/73 41/71/63
f 51/83/73 42/72/64 41/71/63
f 51/83/73 52/84/74 42/72/64
f 52/84/74 33/73/55 42/72/64
f 52/84/74 43/85/65 33/73/55
f 53/86/75 44/75/66 43/74/65
f 53/86/75 54/87/76 44/75/66
f 54/87/76 45/76/67 44/75/66
f 54/87/76 55/88/77 45/76/67
f 55/88/77 46/77/68 45/76/67
f 55/88/77 56/89/78 46/77/68
f 56/89/78 47/78/69 46/77/68
f 56/89/78 57/90/79 47/78/69
f 57/90/79 48/79/70 47/78/69
f 57/90/79 58/91/80 48/79/70
f 58/92/80 49/81/71 48/80/70
f 58/92/80 59/93/81 49/81/71
f 59/93/81 50/82/72 49/81/71
f 59/93/81 60/94/82 50/82/72
f 60/94/82 51/83/73 50/82/72
f 60/94/82 61/95/83 51/83/73
f 61/95/83 52/84/74 51/83/73
f 61/95/83 62/96/84 52/84/74
f 62/96/84 43/85/65 52/84/74
f 62/96/84 53/97/75 43/85/65
f 63/98/85 54/87/76 53/86/75
f 63/98/85 64/99/86 54/87/76
f 64/99/86 55/88/77 54/87/76
f 64/99/86 65/100/87 55/88/77
f 65/100/87 56/89/78 55/88/77
f 65/100/87 66/101/88 56/89/78
f 66/101/88 57/90/79 56/89/78
f 66/101/88 67/102/89 57/90/79
f 67/102/89 58/91/80 57/90/79
f 67/102/89 68/103/90 58/91/80
f 68/104/90 59/93/81 58/92/80
f 68/104/90 69/105/91 59/93/81
f 69/105/91 60/94/82 59/93/81
f 69/105/91 70/106/92 60/94/82
f 70/106/92 61/95/83 60/94/82
f 70/106/92 71/107/93 61/95/83
f 71/107/93 62/96/84 61/95/83
f 71/107/93 72/108/94 62/96/84
f 72/108/94 53/97/75 62/96/84
f 72/108/94 63/109/85 53/97/75
f 2/110/95 64/99/86 63/98/85
f 2/111/95 65/100/87 64/99/86
f 2/112/95 66/101/88 65/100/87
f 2/113/95 67/102/89 66/101/88
f 2/114/95 68/103/90 67/102/89
f 2/115/95 69/105/91 68/104/90
f 2/116/95 70/106/92 69/105/91
f 2/117/95 71/107/93 70/106/92
f 2/118/95 72/108/94 71/107/93
f 2/119/95 63/109/85 72/108/94
f 1/120/96 74/121/97 73/122/4
f 1/123/96 75/124/98 74/125/97
f 1/126/96 76/127/15 75/128/98
f 1/129/96 77/130/13 76/131/15
f 1/132/96 78/133/11 77/134/13
f 1/135/96 79/136/9 78/137/11
f 1/138/96 80/139/7 79/140/9
f 1/141/96 81/142/5 80/143/7
f 1/144/96 82/145/1 81/146/5
f 1/147/96 73/148/4 82/149/1
f 6/32/31 84/140/99 83/139/100
f 6/32/31 7/34/33 84/140/99
f 7/34/33 85/150/101 84/151/99
f 7/34/33 8/36/35 85/150/101
f 8/40/35 86/134/102 85/133/101
f 8/40/35 9/39/37 86/134/102
f 9/39/37 87/131/103 86/130/102
f 9/39/37 10/42/39 87/131/103
f 10/42/39 88/128/104 87/127/103
f 10/42/39 11/44/41 88/128/104
f 11/44/41 89/125/105 88/124/104
f 11/44/41 12/46/43 89/125/105
f 12/46/43 90/122/106 89/121/105
f 12/46/43 3/48/27 90/122/106
f 3/28/27 91/149/107 90/148/106
f 3/28/27 4/27/26 91/149/107
f 4/27/26 92/146/108 91/145/107
f 4/27/26 5/30/29 92/146/108
f 5/30/29 83/143/100 92/142/108
f 5/30/29 6/32/31 83/143/100
f 83/152/100 94/153/109 93/154/110
f 83/152/100 84/155/99 94/153/109
f 84/155/99 95/156/111 94/153/109
f 84/155/99 85/157/101 95/156/111
f 85/157/101 96/158/112 95/156/111
f 85/157/101 86/159/102 96/158/112
f 86/159/102 115/160/113 96/158/112
f 86/159/102 87/161/103 115/160/113
f 122/162/114 98/163/115 97/164/116
f 122/162/114 123/165/117 98/163/115
f 123/165/117 99/166/118 98/163/115
f 123/165/117 124/167/119 99/166/118
f 124/167/119 100/168/120 99/166/118
f 124/167/119 125/169/121 100/168/120
f 90/170/106 101/171/122 118/172/123
f 90/170/106 91/173/107 101/171/122
f 91/173/107 102/174/124 101/171/122
f 91/173/107 92/175/108 102/174/124
f 92/175/108 93/176/110 102/174/124
f 92/175/108 83/20/100 93/176/110
f 93/154/110 104/11/10 103/10/8
f 93/154/110 94/153/109 104/11/10
f 94/153/109 105/14/12 104/11/10
f 94/153/109 95/156/111 105/14/12
f 95/156/111 106/16/14 105/14/12
f 95/156/111 96/158/112 106/16/14
f 121/152/18 97/164/116 107/12/19
f 121/152/18 122/162/114 97/164/116
f 97/160/116 108/177/17 107/18/19
f 97/160/116 98/178/115 108/177/17
f 98/179/115 109/180/22 108/181/17
f 98/179/115 99/182/118 109/180/22
f 99/182/118 110/2/24 109/180/22
f 99/182/118 100/172/120 110/2/24
f 125/183/121 110/25/24 100/184/120
f 125/183/121 126/24/23 110/25/24
f 101/171/122 112/6/6 111/3/3
f 101/171/122 102/174/124 112/6/6
f 102/174/124 103/8/8 112/6/6
f 102/174/124 93/176/110 103/8/8
f 75/185/98 114/18/16 113/177/125
f 75/185/98 76/17/15 114/18/16
f 106/16/14 115/160/113 114/18/16
f 106/16/14 96/158/112 115/160/113
f 87/161/103 116/178/126 115/160/113
f 87/161/103 88/186/104 116/178/126
f 88/187/104 117/182/127 116/179/126
f 88/187/104 89/188/105 117/182/127
f 89/188/105 118/172/123 117/182/127
f 89/188/105 90/170/106 118/172/123
f 101/171/122 119/2/2 118/172/123
f 101/171/122 111/3/3 119/2/2
f 73/4/4 120/180/128 119/2/2
f 73/4/4 74/189/97 120/180/128
f 74/189/97 113/181/125 120/180/128
f 74/189/97 75/190/98 113/181/125
f 114/191/16 122/192/114 121/193/18
f 114/191/16 115/194/113 122/192/114
f 115/194/113 123/195/117 122/192/114
f 115/194/113 116/196/126 123/195/117
f 116/196/126 124/197/119 123/195/117
f 116/196/126 117/198/127 124/197/119
f 117/199/127 125/200/121 124/201/119
f 117/199/127 118/202/123 125/200/121
f 118/202/123 126/203/23 125/200/121
f 118/202/123 119/204/2 126/203/23
f 119/204/2 127/205/21 126/203/23
f 119/204/2 120/206/128 127/205/21
f 120/206/128 128/7/20 127/205/21
f 120/206/128 113/20/125 128/7/20
f 113/152/125 121/193/18 128/12/20
f 113/152/125 114/191/16 121/193/18
# 252 triangles in group

# 252 triangles total

